<?xml version="1.0" standalone="no"?>
<!DOCTYPE svg PUBLIC "-//W3C//DTD SVG 20010904//EN"
 "http://www.w3.org/TR/2001/REC-SVG-20010904/DTD/svg10.dtd">
<svg version="1.0" xmlns="http://www.w3.org/2000/svg"
 width="200.000000pt" height="200.000000pt" viewBox="0 0 200.000000 200.000000"
 preserveAspectRatio="xMidYMid meet">
<metadata>
Created by potrace 1.11, written by Peter Selinger 2001-2013
</metadata>
<g transform="translate(0.000000,200.000000) scale(0.100000,-0.100000)"
fill="#000000" stroke="none">
<path d="M1121 1963 c-8 -3 17 -20 59 -39 58 -27 81 -33 108 -28 25 5 31 9 20
15 -13 7 -169 60 -172 58 0 0 -7 -3 -15 -6z"/>
<path d="M970 1948 c0 -3 18 -17 41 -32 35 -23 46 -26 86 -20 l46 7 -37 19
c-35 18 -136 37 -136 26z"/>
<path d="M867 1933 c-4 -3 -7 -21 -7 -40 0 -31 2 -33 33 -32 17 1 43 4 56 8
l24 6 -28 33 c-25 30 -62 42 -78 25z"/>
<path d="M610 1859 c-19 -12 -54 -39 -77 -60 -42 -38 -42 -39 -15 -38 49 2 69
13 117 67 36 40 43 52 28 52 -10 0 -34 -10 -53 -21z"/>
<path d="M818 1843 c-27 -4 -28 -6 -44 -95 -7 -43 -12 -42 91 -27 62 9 75 14
71 28 -3 9 -10 35 -16 59 -12 45 -19 48 -102 35z"/>
<path d="M1015 1838 l-61 -9 21 -65 c17 -56 23 -64 45 -64 32 0 141 18 147 24
6 6 -77 127 -86 125 -3 -1 -33 -6 -66 -11z"/>
<path d="M1420 1843 c0 -5 22 -23 48 -40 26 -18 63 -47 84 -64 28 -24 41 -29
59 -24 l23 8 -29 24 c-85 71 -185 123 -185 96z"/>
<path d="M1318 1833 c-14 -3 -5 -18 45 -67 l62 -64 53 6 c28 2 52 8 52 11 0 7
-67 65 -117 99 -30 21 -57 25 -95 15z"/>
<path d="M666 1801 c-23 -5 -37 -20 -64 -69 -19 -35 -32 -65 -29 -68 4 -4 138
14 143 19 2 1 9 30 17 65 l14 62 -26 -1 c-14 -1 -39 -4 -55 -8z"/>
<path d="M424 1750 c-19 -8 -158 -150 -152 -156 2 -1 22 0 45 3 37 5 46 12 73
52 16 26 41 58 55 71 39 36 29 51 -21 30z"/>
<path d="M478 1711 c-30 -7 -66 -50 -105 -125 l-25 -49 49 7 c102 14 98 11
129 89 16 39 31 75 32 79 4 9 -40 9 -80 -1z"/>
<path d="M885 1686 l-80 -11 -3 -82 c-3 -83 -3 -83 22 -83 28 0 179 21 184 26
6 5 -30 164 -37 163 -3 -1 -42 -7 -86 -13z"/>
<path d="M1577 1691 l-39 -6 30 -38 c17 -21 45 -60 63 -88 l32 -51 46 7 c25 4
48 8 50 10 8 8 -125 176 -138 174 -3 -1 -23 -5 -44 -8z"/>
<path d="M1203 1675 c-45 -6 -85 -14 -88 -17 -4 -4 6 -45 21 -92 21 -65 32
-85 44 -82 8 3 57 10 108 17 50 6 92 15 92 18 0 8 -80 155 -88 162 -4 3 -44 1
-89 -6z"/>
<path d="M1466 1639 c-32 -5 -61 -10 -63 -12 -1 -2 18 -45 43 -96 30 -59 51
-91 59 -87 7 2 45 8 84 12 l70 7 -16 31 c-30 59 -97 156 -108 155 -5 -1 -37
-5 -69 -10z"/>
<path d="M673 1628 l-62 -10 -10 -46 c-5 -26 -13 -69 -16 -96 -7 -44 -6 -48
11 -43 11 3 58 11 107 17 l87 12 0 89 0 89 -27 -1 c-16 -1 -56 -6 -90 -11z"/>
<path d="M206 1536 c-17 -20 -96 -165 -96 -179 0 -2 13 -2 30 1 27 4 35 14 75
99 25 53 45 97 45 99 0 13 -35 0 -54 -20z"/>
<path d="M293 1513 c-17 -2 -36 -10 -41 -16 -12 -15 -58 -132 -68 -171 -6 -27
-5 -28 22 -23 16 3 47 9 70 12 l41 6 23 82 c12 45 24 90 27 100 6 18 -2 19
-74 10z"/>
<path d="M1737 1493 c-12 -3 -17 -11 -13 -21 3 -10 20 -57 38 -107 l33 -90 47
5 c26 3 50 8 53 11 6 7 -25 99 -56 162 -20 41 -27 47 -53 46 -17 -1 -39 -3
-49 -6z"/>
<path d="M705 1385 c-44 -8 -86 -14 -92 -14 -10 -1 -13 -30 -13 -112 0 -110 0
-111 23 -106 12 3 66 11 120 18 l99 12 -7 71 c-11 126 -15 146 -33 145 -10 -1
-53 -7 -97 -14z"/>
<path d="M1621 1369 c-30 -5 -56 -10 -57 -12 -1 -1 10 -51 25 -110 l26 -108
35 5 c19 3 57 8 83 12 l49 7 -7 35 c-4 20 -17 67 -29 106 -25 80 -27 81 -125
65z"/>
<path d="M92 1318 c-13 -17 -39 -110 -48 -171 -6 -44 -5 -49 12 -45 20 4 23
11 52 141 15 65 16 87 7 87 -7 0 -17 -6 -23 -12z"/>
<path d="M177 1250 c-20 -4 -39 -9 -41 -11 -5 -5 -26 -212 -22 -216 2 -3 129
17 132 20 1 1 4 50 6 110 5 120 10 114 -75 97z"/>
<path d="M408 1246 c-43 -7 -81 -16 -85 -20 -4 -4 -9 -57 -11 -117 l-4 -110
33 5 c19 3 65 11 104 17 38 5 71 11 72 13 2 2 0 53 -3 115 -5 71 -11 111 -18
110 -6 -1 -46 -7 -88 -13z"/>
<path d="M1880 1222 c0 -5 4 -33 10 -63 5 -30 12 -80 15 -111 5 -48 10 -58 25
-58 29 0 31 13 20 107 -16 126 -18 133 -46 133 -13 0 -24 -4 -24 -8z"/>
<path d="M1108 1201 c-64 -9 -119 -19 -122 -22 -5 -5 23 -221 30 -228 4 -4
246 28 252 33 5 5 -30 221 -37 227 -3 3 -59 -1 -123 -10z"/>
<path d="M1470 1149 c-30 -5 -74 -11 -98 -14 -31 -5 -42 -10 -38 -20 3 -8 10
-62 17 -120 10 -89 14 -105 28 -101 9 3 62 10 119 17 l102 12 -5 51 c-12 105
-17 142 -22 164 -6 24 -13 25 -103 11z"/>
<path d="M767 1115 c-49 -7 -90 -15 -92 -17 -5 -5 23 -219 29 -225 5 -5 229
26 235 33 3 2 -2 52 -10 112 l-14 107 -30 1 c-16 1 -70 -4 -118 -11z"/>
<path d="M1790 1117 c-35 -4 -65 -9 -66 -10 0 -1 1 -55 4 -120 l5 -118 26 5
c14 3 45 8 69 11 l42 7 -1 81 c0 45 -3 98 -7 117 l-7 35 -65 -8z"/>
<path d="M60 935 c0 -24 7 -78 16 -119 l17 -74 36 5 c20 3 37 7 39 8 2 2 -4
37 -12 79 -9 41 -16 91 -16 111 0 34 -1 35 -40 35 l-40 0 0 -45z"/>
<path d="M275 975 c-5 -2 -32 -6 -58 -10 l-49 -6 7 -42 c3 -23 13 -76 22 -118
l15 -75 79 11 c43 6 81 14 84 16 2 3 0 21 -5 40 -5 19 -14 69 -21 112 -11 74
-13 77 -38 76 -14 0 -30 -2 -36 -4z"/>
<path d="M1240 910 c-25 -4 -71 -11 -102 -14 -67 -9 -65 -3 -47 -146 l11 -86
116 16 c136 17 128 7 117 147 -8 104 -1 99 -95 83z"/>
<path d="M1885 863 c-4 -32 -13 -84 -20 -115 -7 -32 -10 -58 -7 -58 40 1 51
14 66 78 8 37 18 86 21 110 7 41 6 42 -23 42 -29 0 -30 -2 -37 -57z"/>
<path d="M908 832 c-98 -14 -108 -17 -108 -36 1 -28 35 -185 43 -192 7 -7 215
21 224 30 3 3 0 53 -7 111 -11 85 -16 105 -29 104 -9 -1 -64 -9 -123 -17z"/>
<path d="M197 710 c-27 -5 -51 -11 -54 -14 -3 -2 17 -50 43 -105 40 -87 50
-100 68 -96 12 2 38 7 59 10 24 4 37 11 34 18 -3 7 -22 54 -42 105 -21 50 -43
91 -49 91 -6 -1 -33 -5 -59 -9z"/>
<path d="M405 678 c-38 -6 -71 -11 -72 -13 -5 -3 48 -129 70 -165 11 -19 21
-36 21 -37 1 -1 37 4 81 11 59 9 79 16 78 27 -1 8 -15 52 -31 99 -34 97 -30
95 -147 78z"/>
<path d="M1331 672 l-104 -15 8 -96 c3 -53 8 -97 10 -99 1 -2 45 3 96 10 107
15 103 11 115 146 6 58 4 72 -7 71 -8 -1 -61 -8 -118 -17z"/>
<path d="M685 605 c-44 -7 -81 -13 -82 -14 -2 -1 34 -91 61 -154 14 -32 21
-38 39 -34 12 3 50 9 83 13 92 10 91 8 62 111 -29 102 -24 100 -163 78z"/>
<path d="M1588 585 c-43 -6 -79 -13 -81 -16 -2 -2 -11 -33 -20 -69 -9 -36 -19
-76 -23 -89 -7 -24 -6 -24 41 -18 26 4 58 7 70 7 18 0 28 12 47 58 39 90 50
120 47 129 -2 5 -39 4 -81 -2z"/>
<path d="M977 547 c-64 -8 -77 -12 -73 -26 3 -9 12 -45 22 -81 9 -36 20 -69
24 -73 4 -4 48 -2 97 4 l91 12 -4 56 c-10 118 -11 121 -47 120 -18 -1 -67 -6
-110 -12z"/>
<path d="M1735 478 c-8 -13 -35 -53 -59 -89 l-43 -65 26 4 c20 3 42 24 81 78
30 40 56 78 58 84 7 20 -47 10 -63 -12z"/>
<path d="M1263 437 l-73 -10 0 -80 0 -79 48 6 c118 17 109 11 127 84 10 37 19
73 21 80 4 14 -17 14 -123 -1z"/>
<path d="M465 423 c-57 -7 -59 -10 -24 -56 56 -73 102 -117 119 -113 8 2 37 7
63 11 l48 6 -24 32 c-13 18 -36 53 -51 80 -30 50 -37 52 -131 40z"/>
<path d="M1563 343 c-22 -3 -39 -15 -59 -41 -15 -20 -41 -52 -58 -70 l-30 -32
34 6 c38 8 83 40 145 103 41 43 42 43 -32 34z"/>
<path d="M1585 268 c-11 -6 -33 -23 -50 -38 -16 -15 -47 -37 -68 -50 -21 -12
-36 -25 -33 -27 6 -6 109 56 160 97 38 29 32 41 -9 18z"/>
<path d="M1410 265 c-8 -2 -32 -6 -52 -10 -34 -5 -41 -12 -67 -65 l-30 -60 42
6 c45 7 98 49 130 104 18 30 16 33 -23 25z"/>
<path d="M536 193 c-17 -4 -14 -9 20 -30 92 -57 194 -90 194 -63 0 6 -4 10 -9
10 -5 0 -40 20 -77 45 -63 43 -84 49 -128 38z"/>
<path d="M868 193 c-21 -2 -38 -8 -38 -13 0 -5 23 -28 52 -51 46 -36 57 -40
91 -36 21 3 41 7 43 10 3 3 -6 22 -21 42 -14 21 -25 42 -25 46 0 9 -30 9 -102
2z"/>
<path d="M755 141 l-30 -6 35 -21 c80 -46 161 -67 175 -44 3 6 2 10 -3 10 -5
0 -33 16 -61 35 -51 35 -62 38 -116 26z"/>
<path d="M1310 104 c-69 -43 -55 -43 35 1 49 23 63 33 45 33 -14 0 -50 -15
-80 -34z"/>
<path d="M1217 111 c-29 -6 -68 -61 -43 -61 13 0 96 56 96 65 0 6 -15 5 -53
-4z"/>
<path d="M1082 103 c-10 -4 -10 -10 3 -29 13 -20 13 -24 1 -24 -7 0 -19 7 -26
15 -14 17 -65 20 -75 5 -17 -28 149 -35 167 -6 18 28 8 46 -24 45 -18 0 -39
-3 -46 -6z"/>
</g>
</svg>
